<svg xmlns="http://www.w3.org/2000/svg" width="18" height="15" viewBox="0 0 33.98 30.98">
    <g id="download" transform="translate(0 -3)">
        <path id="Path_1" dataname="Path 1" d="M11.335,25.657a4.247,4.247,0,0,0,6.009,0l4.546-4.546a1.416,1.416,0,0,0-2-2l-4.143,4.144.01-18.842A1.416,1.416,0,0,0,14.339,3h0a1.416,1.416,0,0,0-1.416,1.416l-.013,18.815-4.12-4.117a1.416,1.416,0,1,0-2,2Z" transform="translate(2.65)" fill="#535353" />
        <path id="Path_2" dataname="Path 2" d="M32.564,16h0a1.416,1.416,0,0,0-1.416,1.416v5.663a1.416,1.416,0,0,1-1.416,1.416H4.247a1.416,1.416,0,0,1-1.416-1.416V17.416A1.416,1.416,0,0,0,1.416,16h0A1.416,1.416,0,0,0,0,17.416v5.663a4.247,4.247,0,0,0,4.247,4.247H29.732a4.247,4.247,0,0,0,4.247-4.247V17.416A1.416,1.416,0,0,0,32.564,16Z" transform="translate(0 6.653)" fill="#535353" />
    </g>
</svg>